<svg width="111" height="41" viewBox="0 0 111 41" fill="none" xmlns="http://www.w3.org/2000/svg">
<g id="Layer 1">
<g id="Group">
<path id="Vector" d="M85.8756 40.4812C86.0165 40.4812 86.1574 40.4109 86.1767 40.3405L93.671 18.9492C93.8503 18.4438 94.5613 18.431 94.7535 18.93L103.119 40.3213C103.145 40.4173 103.292 40.4812 103.375 40.4812H110.28C110.395 40.4812 110.492 40.4301 110.543 40.3533C110.575 40.2957 110.575 40.2382 110.543 40.1742L94.4909 0.673156C94.446 0.545218 94.2987 0.506836 94.1834 0.506836C94.0681 0.506836 93.9208 0.551614 93.876 0.673156L78.708 40.1678C78.6759 40.2318 78.6567 40.3021 78.6952 40.3661C78.74 40.4429 78.8617 40.4876 79.0154 40.4876H85.8692L85.8756 40.4812Z" fill="#3759B3"/>
<path id="Vector_2" d="M83.5959 12.3983C83.5959 0.602351 72.3351 0.5 70.0804 0.5H50.7425C50.1084 0.5 49.9419 1.36359 50.5248 1.60667C53.1253 2.68135 55.3993 4.32536 57.2632 6.50032C57.5451 6.82656 57.8141 7.1656 58.0703 7.51103C58.1792 7.65816 58.3522 7.74772 58.5315 7.74772H64.2259H70.0804C71.2847 7.74772 75.9862 7.9972 75.9862 12.3983C75.9862 16.7994 71.733 16.9977 70.0804 16.9977H62.5797C62.2274 16.9977 61.9648 17.3047 62.0096 17.6502C62.1185 18.5713 62.1826 19.4989 62.1826 20.4456C62.1826 25.7615 60.4339 30.7383 57.2632 34.4549C57.1031 34.6404 56.9366 34.8259 56.77 35.005C56.6739 35.1138 56.6163 35.2481 56.6163 35.3952V40.033C56.6163 40.2313 56.8661 40.4808 57.1159 40.4808H63.6686C63.9697 40.4808 64.2195 40.2313 64.2195 40.033V24.9171C64.2195 24.5972 64.4757 24.3414 64.796 24.3414H68.1524C68.3766 24.3414 68.5816 24.4693 68.6777 24.674L75.8325 40.1801C75.8837 40.3273 76.1848 40.4808 76.3321 40.4808H76.9919C77.1969 40.4808 77.389 40.3593 77.4723 40.1674L77.7477 39.5532L80.2394 33.1371C80.4124 32.6893 80.3932 32.1904 80.1946 31.7554C78.9391 29.0879 77.6901 26.4076 76.4794 23.6889C76.3513 23.3946 76.4794 23.0428 76.7805 22.9212C80.5405 21.3796 83.5894 18.2067 83.5894 12.3855L83.5959 12.3983Z" fill="#3759B3"/>
<path id="Vector_3" d="M42.5501 39.847C55.3289 39.847 61.1514 29.7847 61.1514 20.4387C61.1514 11.0928 55.3289 1.13281 42.5501 1.13281C38.1111 1.13281 34.191 2.37382 31.078 4.74068C30.636 5.07332 30.873 5.77698 31.4303 5.77698H31.6096C31.9555 5.77698 32.2758 5.9433 32.468 6.23117C32.6601 6.51263 32.6986 6.87086 32.5705 7.1907L24.7559 26.7717C27.1835 34.9598 33.8259 39.847 42.5437 39.847H42.5501ZM42.5501 7.6193C50.5632 7.6193 54.2143 14.3425 54.2143 20.5923C54.2143 26.8421 50.2045 33.4181 42.5501 33.4181C34.4985 33.4181 30.8346 26.7717 30.8346 20.5923C30.8346 14.4128 34.4985 7.6193 42.5501 7.6193Z" fill="#3759B3"/>
<path id="Vector_4" d="M18.2798 40.2377L31.2956 7.60059C31.4493 7.22317 31.1675 6.81377 30.7575 6.81377H24.2945C24.0575 6.81377 23.8397 6.9609 23.7564 7.18479L18.331 21.2772C18.1453 21.757 17.4663 21.7762 17.2613 21.2964L8.37063 0.800656C8.31939 0.602351 8.12082 0.5 7.87101 0.5H1.06207C0.664931 0.5 0.459958 0.800656 0.613688 1.10131L17.3254 40.2377C17.4279 40.4104 17.6264 40.5 17.8186 40.5C18.0108 40.5 18.2029 40.4104 18.2734 40.2377H18.2798Z" fill="#3759B3"/>
</g>
</g>
</svg>
