<svg width="110" height="41" viewBox="0 0 110 41" fill="none" xmlns="http://www.w3.org/2000/svg">
<g id="Layer 1">
<g id="Group">
<path id="Vector" d="M85.3131 40.4812C85.454 40.4812 85.5949 40.4109 85.6142 40.3405L93.1085 18.9492C93.2878 18.4438 93.9988 18.431 94.191 18.93L102.556 40.3213C102.582 40.4173 102.729 40.4812 102.813 40.4812H109.718C109.833 40.4812 109.929 40.4301 109.98 40.3533C110.012 40.2957 110.012 40.2382 109.98 40.1742L93.9284 0.673156C93.8835 0.545218 93.7362 0.506836 93.6209 0.506836C93.5056 0.506836 93.3583 0.551614 93.3135 0.673156L78.1455 40.1678C78.1134 40.2318 78.0942 40.3021 78.1327 40.3661C78.1775 40.4429 78.2992 40.4876 78.4529 40.4876H85.3067L85.3131 40.4812Z" fill="#3759B3"/>
<path id="Vector_2" d="M83.0334 12.3983C83.0334 0.602351 71.7726 0.5 69.5179 0.5H50.18C49.5459 0.5 49.3794 1.36359 49.9623 1.60667C52.5628 2.68135 54.8368 4.32536 56.7007 6.50032C56.9826 6.82656 57.2516 7.1656 57.5078 7.51103C57.6167 7.65816 57.7897 7.74772 57.969 7.74772H63.6634H69.5179C70.7222 7.74772 75.4237 7.9972 75.4237 12.3983C75.4237 16.7994 71.1705 16.9977 69.5179 16.9977H62.0172C61.6649 16.9977 61.4023 17.3047 61.4471 17.6502C61.556 18.5713 61.6201 19.4989 61.6201 20.4456C61.6201 25.7615 59.8714 30.7383 56.7007 34.4549C56.5406 34.6404 56.3741 34.8259 56.2075 35.005C56.1114 35.1138 56.0538 35.2481 56.0538 35.3952V40.033C56.0538 40.2313 56.3036 40.4808 56.5534 40.4808H63.1061C63.4072 40.4808 63.657 40.2313 63.657 40.033V24.9171C63.657 24.5972 63.9132 24.3414 64.2335 24.3414H67.5899C67.8141 24.3414 68.0191 24.4693 68.1152 24.674L75.27 40.1801C75.3212 40.3273 75.6223 40.4808 75.7696 40.4808H76.4294C76.6344 40.4808 76.8265 40.3593 76.9098 40.1674L77.1852 39.5532L79.6769 33.1371C79.8499 32.6893 79.8307 32.1904 79.6321 31.7554C78.3766 29.0879 77.1276 26.4076 75.9169 23.6889C75.7888 23.3946 75.9169 23.0428 76.218 22.9212C79.978 21.3796 83.0269 18.2067 83.0269 12.3855L83.0334 12.3983Z" fill="#3759B3"/>
<path id="Vector_3" d="M41.9876 39.847C54.7664 39.847 60.5889 29.7847 60.5889 20.4387C60.5889 11.0928 54.7664 1.13281 41.9876 1.13281C37.5486 1.13281 33.6285 2.37382 30.5155 4.74068C30.0735 5.07332 30.3105 5.77698 30.8678 5.77698H31.0471C31.393 5.77698 31.7133 5.9433 31.9055 6.23117C32.0976 6.51263 32.1361 6.87086 32.008 7.1907L24.1934 26.7717C26.621 34.9598 33.2634 39.847 41.9812 39.847H41.9876ZM41.9876 7.6193C50.0007 7.6193 53.6518 14.3425 53.6518 20.5923C53.6518 26.8421 49.642 33.4181 41.9876 33.4181C33.936 33.4181 30.2721 26.7717 30.2721 20.5923C30.2721 14.4128 33.936 7.6193 41.9876 7.6193Z" fill="#3759B3"/>
<path id="Vector_4" d="M17.7173 40.2377L30.7331 7.60059C30.8868 7.22317 30.605 6.81377 30.195 6.81377H23.732C23.495 6.81377 23.2772 6.9609 23.1939 7.18479L17.7685 21.2772C17.5828 21.757 16.9038 21.7762 16.6988 21.2964L7.80813 0.800656C7.75689 0.602351 7.55832 0.5 7.30851 0.5H0.499566C0.102431 0.5 -0.102542 0.800656 0.0511879 1.10131L16.7629 40.2377C16.8654 40.4104 17.0639 40.5 17.2561 40.5C17.4483 40.5 17.6404 40.4104 17.7109 40.2377H17.7173Z" fill="#3759B3"/>
</g>
</g>
</svg>
